<?xml version="1.0" encoding="UTF-8"?>
<svg id="Layer_1" data-name="Layer 1" xmlns="http://www.w3.org/2000/svg" viewBox="0 0 349.73 245.84">
  <defs>
    <style>
      .cls-1 {
        fill: #b00be6;
      }
    </style>
  </defs>
  <path class="cls-1" d="M174.85,245.84c-22,0-39.89-17.9-39.89-39.89s17.89-39.89,39.89-39.89,39.89,17.9,39.89,39.89-17.9,39.89-39.89,39.89Z"/>
  <path class="cls-1" d="M309.84,214c-10.65,0-20.67-4.15-28.21-11.68l-106.78-106.78-106.78,106.78c-7.54,7.53-17.55,11.68-28.21,11.68s-20.67-4.15-28.21-11.68c-15.55-15.55-15.55-40.86,0-56.42L145.9,11.67c7.53-7.53,17.54-11.67,28.21-11.67,.23,0,.82,0,.82,0,.23,0,.46,0,.68,0,10.66,0,20.68,4.15,28.21,11.67l134.23,134.23c7.53,7.54,11.68,17.55,11.68,28.21s-4.15,20.67-11.68,28.21c-7.54,7.53-17.55,11.68-28.21,11.68Z"/>
</svg>